<svg xmlns="http://www.w3.org/2000/svg" width="112" height="57" viewBox="0 0 112 57" fill="none"><path d="M61.1734 25.8315C60.7343 25.8038 60.3602 25.6773 60.0511 25.4521C59.7713 25.2287 59.4805 24.9458 59.1788 24.6035L59.2722 24.5212C59.274 24.4919 59.2475 24.4461 59.1927 24.3839C59.0044 24.1075 58.8709 23.8933 58.7923 23.7414C58.743 23.5913 58.6937 23.4413 58.6444 23.2912C58.6244 23.143 58.6043 22.9948 58.5843 22.8465C58.5642 22.6983 58.5186 22.4897 58.4474 22.2207C58.4255 22.1017 58.4301 22.0285 58.4613 22.0011L58.5167 21.1229C58.5259 20.9765 58.5342 20.8447 58.5416 20.7276C58.5509 20.5813 58.5455 20.434 58.5254 20.2857C58.5035 20.1668 58.4807 20.0625 58.457 19.9728C58.4644 19.8557 58.4699 19.7679 58.4736 19.7093C58.4755 19.6801 58.5112 19.5794 58.5808 19.4075C58.5864 19.3197 58.6047 19.262 58.6358 19.2346C58.581 19.1724 58.5545 19.1266 58.5563 19.0973C58.5582 19.0681 58.5747 19.0397 58.6058 19.0123L58.6525 18.9711C58.6525 18.9711 58.668 18.9574 58.6991 18.93C58.701 18.9007 58.7175 18.8724 58.7486 18.8449C58.7193 18.8431 58.7056 18.8275 58.7075 18.7983C58.7112 18.7397 58.7276 18.7114 58.7569 18.7132C58.7168 18.4168 58.7453 18.1981 58.8424 18.0573C58.9413 17.8872 58.957 17.6383 58.8895 17.3108L59.1091 17.3246L59.1285 17.0172L59.1751 16.9761L58.975 16.6548L59.2851 16.6303L59.2879 16.5864C59.2897 16.5571 59.3062 16.5288 59.3374 16.5014C59.7074 15.7605 60.018 15.0306 60.2691 14.3117L60.0028 14.339L60.0222 14.0316L60.1101 14.0371C60.2712 13.8122 60.4196 13.557 60.5552 13.2716C60.6229 13.129 60.6889 13.0156 60.753 12.9314C60.8171 12.8473 60.8674 12.7476 60.9041 12.6323L60.8574 12.6735C60.6396 12.8655 60.5086 13.0777 60.4646 13.31C60.426 13.4545 60.3592 13.5826 60.264 13.6941C60.198 13.8075 60.1028 13.9191 59.9783 14.0288C59.8538 14.1385 59.7468 14.2053 59.6571 14.229C59.5344 14.3094 59.4392 14.421 59.3714 14.5637C59.071 15.1325 58.7139 15.6684 58.3001 16.1714C57.9155 16.6762 57.5319 17.1663 57.1492 17.6418C57.0851 17.726 56.9908 17.8229 56.8663 17.9326C56.7418 18.0423 56.6457 18.1685 56.5779 18.3112C56.4808 18.452 56.3984 18.5938 56.3306 18.7365L56.0394 19.159C55.9735 19.2724 55.8939 19.3702 55.8005 19.4525C55.7071 19.5348 55.5982 19.6308 55.4737 19.7405L54.8229 20.2726C54.0375 21.0753 53.2227 21.8763 52.3787 22.6754C51.5659 23.4471 50.6314 24.0494 49.5754 24.4825C49.4857 24.5062 49.4116 24.5162 49.353 24.5125C49.2926 24.5381 49.2332 24.549 49.1746 24.5453C48.8233 24.5232 48.5407 24.3437 48.3268 24.0069C48.1422 23.6719 48.0601 23.3434 48.0804 23.0214C48.0897 22.875 48.1291 22.7159 48.1987 22.5439L48.4021 22.1159C48.4717 21.9439 48.5111 21.7847 48.5204 21.6384C48.5296 21.492 48.5691 21.3328 48.6387 21.1609C48.7468 20.8444 48.8678 20.5581 49.0015 20.302C49.1371 20.0167 49.2882 19.7176 49.4549 19.4048C49.4549 19.4048 49.4925 19.2749 49.5677 19.0151C49.5806 18.8102 49.6035 18.6794 49.6365 18.6227C49.4938 18.5549 49.4234 18.5064 49.4253 18.4771C49.4271 18.4478 49.4427 18.4341 49.4719 18.4359L49.4747 18.392C49.5736 18.2219 49.689 18.0235 49.8209 17.7966C49.9839 17.5424 50.1834 17.408 50.4195 17.3935C50.5862 17.0807 50.7373 16.7817 50.8729 16.4963C51.0377 16.2128 51.2026 15.9293 51.3674 15.6458C51.6953 15.108 51.9545 14.4924 52.1452 13.7991L52.2881 13.6317L52.2002 13.6262L52.0796 13.4422L52.2719 13.1898L52.0167 13.0415L52.2885 12.9264L52.1128 12.9153L52.1184 12.8275C52.091 12.7963 52.0791 12.7515 52.0828 12.693C52.0865 12.6344 52.1039 12.5914 52.135 12.564C52.265 12.3664 52.3512 12.1661 52.3934 11.9631C52.4667 11.7326 52.5656 11.5624 52.6901 11.4527L52.6462 11.45L52.5995 11.4911L52.5117 11.4856C52.4238 11.48 52.3818 11.448 52.3855 11.3894L52.3882 11.3455C52.4086 11.0235 52.5158 10.7216 52.7099 10.44C52.7466 10.3247 52.7823 10.2241 52.8171 10.1381C52.8519 10.0521 52.8877 9.95153 52.9243 9.83628C52.9592 9.7503 52.9793 9.6634 52.9849 9.57557C53.0197 9.4896 53.0399 9.40269 53.0454 9.31487C53.0528 9.19777 53.0437 9.10902 53.0181 9.04862C52.967 8.92783 52.9442 8.82352 52.9497 8.73569C52.9571 8.61859 53.0075 8.5189 53.1008 8.43662C53.2235 8.35618 53.3306 8.28946 53.4221 8.23645L53.4249 8.19253C53.3682 8.15957 53.2538 8.10826 53.0819 8.03863C52.941 7.94157 52.856 7.89212 52.8267 7.89027L52.8817 7.71739C52.8195 7.77224 52.7737 7.79875 52.7444 7.7969C52.7737 7.79875 52.7728 7.81339 52.7416 7.84081L52.6538 7.83527C52.5678 7.80045 52.4096 7.74638 52.1791 7.67305C51.9193 7.59788 51.7931 7.50174 51.8005 7.38464C51.8042 7.32609 51.8811 7.27216 52.0312 7.22284C52.1831 7.14425 52.2883 7.10681 52.3469 7.1105C52.7512 7.22419 53.2415 7.37269 53.8177 7.55601C54.4251 7.71191 54.9867 7.8943 55.5026 8.1032C56.0477 8.31395 56.4135 8.57217 56.6 8.87785C56.653 8.96937 56.6758 9.07368 56.6684 9.19078C56.6922 9.28045 56.7013 9.3692 56.6957 9.45702C56.6791 9.7205 56.5874 10.0086 56.4207 10.3214C56.2833 10.6361 56.1477 10.9214 56.014 11.1775C55.9151 11.3476 55.8638 11.4619 55.8601 11.5205C55.8601 11.5205 55.8253 11.6065 55.7557 11.7784C55.6001 11.9156 55.4902 12.0262 55.4261 12.1103C55.3016 12.2201 55.1643 12.2996 55.0143 12.3489L55.0499 12.4834L55.091 12.5301C55.1459 12.5923 55.1724 12.6381 55.1705 12.6673C55.2217 12.7881 55.2436 12.9071 55.2362 13.0242C55.2325 13.0827 55.2132 13.155 55.1784 13.241C55.1436 13.327 55.0667 13.3809 54.9478 13.4028L54.8544 13.4851L54.8983 13.4878C54.8324 13.6012 54.7966 13.7019 54.7911 13.7897L54.7828 13.9214C54.7791 13.98 54.7598 14.0522 54.725 14.1382C54.6902 14.2242 54.628 14.279 54.5383 14.3028C54.4705 14.4455 54.3533 14.6732 54.1866 14.986C54.0491 15.3006 53.9182 15.5128 53.7937 15.6225L53.6453 15.8777L53.6809 16.0122L53.497 16.1328C53.4548 16.3359 53.3247 16.5335 53.1069 16.7254C52.8927 16.8589 52.8066 17.0592 52.8485 17.3264L52.7607 17.3208C52.7881 17.352 52.8009 17.3822 52.7991 17.4114C52.7954 17.47 52.7642 17.4974 52.7057 17.4937C52.6709 17.5797 52.6059 17.6785 52.5106 17.79C52.4173 17.8723 52.2809 17.9372 52.1016 17.9846C51.9934 18.3011 51.834 18.7319 51.6232 19.2771C51.4143 19.793 51.2228 20.2658 51.0488 20.6957C50.8747 21.1256 50.7702 21.3835 50.7354 21.4695C50.7628 21.5006 50.8205 21.519 50.9083 21.5245C51.0254 21.5319 51.2047 21.4844 51.4463 21.3821C51.6898 21.2505 51.7887 21.0804 51.7431 20.8718C51.8602 20.8792 51.9672 20.8125 52.0643 20.6716C52.1888 20.5619 52.2959 20.4952 52.3855 20.4715C52.7553 20.2009 53.1104 19.9294 53.4509 19.6569C53.7933 19.3552 54.1219 19.038 54.4368 18.7051C54.7518 18.3723 55.0667 18.0395 55.3816 17.7066C55.6965 17.3738 56.0105 17.0556 56.3236 16.7521C56.3547 16.7246 56.5442 16.5162 56.8921 16.1266C57.2693 15.7389 57.7105 15.2671 58.2159 14.7112C58.7212 14.1552 59.2275 13.5847 59.7347 12.9994C60.2419 12.4142 60.6557 11.9113 60.9761 11.4906C61.2966 11.07 61.4459 10.8002 61.424 10.6812L61.7753 10.7034L61.8165 10.7501L61.9098 10.6678L61.6875 10.6978L61.7041 10.4344L61.7919 10.4399C61.856 10.3558 61.9201 10.2716 61.9842 10.1875C62.0483 10.1034 62.1115 10.0339 62.1737 9.97903C62.2671 9.89675 62.3514 9.72572 62.4265 9.46593C62.4632 9.35068 62.4989 9.25007 62.5338 9.16409C62.5704 9.04883 62.6071 8.93358 62.6437 8.81833C62.7152 8.6171 62.8836 8.51016 63.149 8.4975L63.1956 8.45636C63.4591 8.47299 63.8516 8.54184 64.373 8.66291C64.8944 8.78399 65.3545 8.94528 65.7532 9.1468C66.1813 9.35016 66.3861 9.59821 66.3676 9.89096C66.3528 10.1252 66.2319 10.4114 66.0048 10.7498C65.807 11.09 65.5808 11.4138 65.3263 11.721C65.1999 11.86 65.0873 12.0146 64.9884 12.1847C64.8895 12.3548 64.7769 12.5093 64.6505 12.6483C64.4253 12.9574 64.2284 13.283 64.0599 13.625L63.9281 13.6167L63.9226 13.7046C63.8622 13.7301 63.7697 13.7978 63.6452 13.9075C63.5519 13.9898 63.4741 14.0584 63.4118 14.1132L63.5436 14.1215C63.5343 14.2679 63.5123 14.3841 63.4775 14.47L63.4114 14.8186L63.1202 15.2411L62.9007 15.2272C62.8933 15.3443 62.8164 15.3983 62.67 15.389C62.5822 15.3835 62.5401 15.3514 62.5438 15.2929C62.5145 15.291 62.5027 15.2462 62.5082 15.1584C62.5119 15.0998 62.543 15.0724 62.6016 15.0761L62.8489 14.6508L62.7666 14.5575C62.6658 14.7568 62.5815 14.9279 62.5138 15.0706C62.4752 15.2151 62.4779 15.4063 62.5217 15.6442L62.4777 15.6414L62.5189 15.6881L62.2938 15.7621L62.2305 16.0667L62.0738 16.4536C61.9675 16.7408 61.8247 16.9081 61.6453 16.9556L61.7221 17.1368L61.5571 17.6554L61.4143 17.8228L61.4582 17.8255L60.8319 18.6678C60.8593 18.6989 60.8693 18.773 60.8619 18.8901C60.8472 19.1243 60.7748 19.3402 60.6447 19.5377C60.5147 19.7353 60.4121 19.9639 60.3369 20.2237L60.3725 20.3582L60.2792 20.4405C60.3084 20.4423 60.3212 20.4725 60.3175 20.5311L60.7044 20.6878C60.5581 20.6785 60.4565 20.6574 60.3998 20.6245L60.3804 20.9318C60.373 21.0489 60.3656 21.166 60.3582 21.2831C60.3527 21.371 60.3316 21.4725 60.2949 21.5878C60.2583 21.703 60.2225 21.8036 60.1877 21.8896C60.1822 21.9774 60.1757 22.0799 60.1683 22.197C60.1535 22.4312 60.1845 22.6389 60.2613 22.8201C60.3143 22.9116 60.3371 23.0159 60.3297 23.133C60.3534 23.2227 60.3762 23.327 60.3981 23.4459C60.4237 23.5063 60.4319 23.6097 60.4226 23.7561C60.4153 23.8732 60.4069 24.0049 60.3977 24.1513C60.4122 24.3874 60.5896 24.6043 60.9298 24.8021C61.2993 25.0018 61.6011 25.109 61.8353 25.1238C62.1281 25.1423 62.365 25.1131 62.5462 25.0364C62.7274 24.9596 62.9397 24.8555 63.1832 24.7239L63.1365 24.765L63.3121 24.7761L63.3094 24.82C63.1427 25.1328 62.8187 25.3769 62.3373 25.5522C61.8542 25.7569 61.4662 25.85 61.1734 25.8315ZM52.2666 17.466L52.3105 17.4688C52.3764 17.3554 52.4396 17.2859 52.5 17.2603L52.4672 17.0819C52.4031 17.166 52.3362 17.294 52.2666 17.466Z" fill="#00657E"></path><path d="M59.1626 36.7706C58.8406 36.7503 58.5982 36.6321 58.4355 36.4161C58.2435 36.1982 58.1275 35.9411 58.0874 35.6446C58.2193 35.4178 58.3 35.0702 58.3296 34.6018C58.3443 34.3676 58.3582 34.1481 58.3711 33.9431C58.3822 33.7675 58.407 33.6074 58.4455 33.4629C58.4714 33.053 58.5265 32.645 58.6109 32.2389C58.6953 31.8327 58.8474 31.519 59.0671 31.2977C59.1605 31.2154 59.2447 31.0444 59.3199 30.7846L59.386 30.4361C59.4171 30.4087 59.4345 30.3657 59.4382 30.3071C59.4382 30.3071 59.473 30.2211 59.5427 30.0492C59.5519 29.9028 59.5758 29.7574 59.6143 29.6128C59.6235 29.4664 59.6465 29.3356 59.6831 29.2204C59.7857 28.9917 59.8179 28.7145 59.7797 28.3888C59.8145 28.3028 59.8686 28.1446 59.9419 27.9141L60.2525 27.1842C60.2892 27.0689 60.3258 26.9537 60.3625 26.8384C60.3973 26.7525 60.433 26.6518 60.4697 26.5366C60.5705 26.3372 60.5934 26.2064 60.5386 26.1441L60.9587 25.7739C60.9606 25.7446 60.9468 25.729 60.9176 25.7272L60.9231 25.6394L60.8847 25.5488L60.893 25.417C60.9223 25.4189 60.9525 25.4061 60.9836 25.3787C61.0148 25.3512 61.0742 25.3403 61.1621 25.3458L61.2938 25.3541L61.346 25.2252L61.3516 25.1373C61.1759 25.1263 61.0964 24.989 61.113 24.7255L61.1597 24.6844C61.2238 24.6002 61.2851 24.56 61.3437 24.5637C61.4078 24.4796 61.4774 24.3076 61.5526 24.0478C61.6259 23.8173 61.765 23.7085 61.97 23.7215L61.9755 23.6337C62.071 23.0518 62.3129 22.4793 62.7011 21.9159C63.0601 21.3508 63.3714 20.8414 63.6352 20.3877C63.6371 20.3585 63.6526 20.3447 63.6819 20.3466L63.6902 20.2148L63.9402 19.7457L64.2009 19.8062L64.4427 19.4688L64.3193 19.3287C64.5353 19.166 64.7092 18.9712 64.8411 18.7444C65.0022 18.5194 65.1652 18.2652 65.3301 17.9817L65.789 16.9966C65.8568 16.8539 65.9255 16.6966 65.9952 16.5247C66.0648 16.3527 66.1344 16.1808 66.2041 16.0088C66.4807 15.3503 66.7547 14.7356 67.0258 14.1649C67.3281 13.5667 67.6623 13.1616 68.0283 12.9496C68.1876 12.7539 68.3177 12.5564 68.4184 12.357C68.5503 12.1302 68.652 11.9162 68.7235 11.7149L69.2018 10.4225C69.2348 10.3658 69.2687 10.2945 69.3035 10.2085C69.3383 10.1225 69.3731 10.0365 69.4079 9.95054L69.6635 9.39353L69.7047 9.44021L69.8036 9.27011L69.9875 9.14945C70.0572 8.9775 70.1551 8.82202 70.2815 8.68304C70.4097 8.51478 70.5369 8.36115 70.6633 8.22216L70.6249 8.13157C70.8116 7.967 70.9105 7.79689 70.9216 7.62124C70.9235 7.59197 70.9098 7.5764 70.8805 7.57456C70.8494 7.60199 70.8201 7.60014 70.7927 7.56902L70.7048 7.56347C70.5292 7.55239 70.445 7.4883 70.4524 7.3712C70.4561 7.31265 70.5697 7.14346 70.7931 6.86364C70.8901 6.72281 70.9707 6.61033 71.0348 6.5262C71.1007 6.41279 71.1502 6.32773 71.1832 6.27103C71.1943 6.09538 71.3187 5.98567 71.5566 5.9419C71.7196 5.68766 71.8973 5.43434 72.0896 5.18195C72.3111 4.9314 72.5317 4.6955 72.7514 4.47423C72.9748 4.1944 73.1671 3.94201 73.3283 3.71705C73.5187 3.49393 73.6487 3.29639 73.7184 3.12444L73.894 3.13552L73.8612 2.9571C73.8667 2.86927 73.9162 2.78422 74.0095 2.70193C74.1559 2.71117 74.3023 2.72041 74.4487 2.72964C74.6243 2.74073 74.7844 2.76552 74.9289 2.80403C75.0735 2.84255 75.2043 2.8655 75.3214 2.87289C75.4678 2.88212 75.6141 2.89136 75.7605 2.9006C76.1044 3.03986 76.4995 3.29992 76.9457 3.68078C77.4231 4.03421 77.6488 4.41585 77.623 4.8257C77.4692 4.93357 77.3292 5.05699 77.2028 5.19598C77.0765 5.33497 76.9648 5.47488 76.8677 5.61571C76.7414 5.7547 76.615 5.89368 76.4887 6.03267C76.3624 6.17166 76.2214 6.30972 76.0658 6.44686L76.0325 6.97381L75.8569 6.96273C75.7965 6.98831 75.7224 6.99833 75.6346 6.99279C75.5742 7.01837 75.5284 7.04487 75.4973 7.0723C75.468 7.07045 75.4534 7.06953 75.4534 7.06953C75.4534 7.06953 75.4524 7.08417 75.4506 7.11344C75.4506 7.11344 75.4643 7.129 75.4917 7.16012L75.5301 7.25072C75.5246 7.33855 75.5346 7.41266 75.5602 7.47305L75.3845 7.46197C75.1996 7.59726 75.0275 7.76275 74.8682 7.95844C74.74 8.12671 74.5954 8.32332 74.4342 8.54828L74.4781 8.55105C74.4159 8.60591 74.3381 8.67448 74.2447 8.75676C74.1825 8.81162 74.1623 8.89852 74.1842 9.01747L73.1927 10.0571L73.2228 10.2794L73.1567 10.628C72.7706 10.6918 72.4438 10.9798 72.1764 11.4919C72.0482 11.6602 71.9291 11.9172 71.8191 12.263C71.7806 12.4075 71.7119 12.5648 71.613 12.7349C71.5433 12.9069 71.4728 13.0935 71.4013 13.2947L71.4096 13.163C71.3785 13.1904 71.3602 13.248 71.3546 13.3359C71.3235 13.3633 71.307 13.3916 71.3052 13.4209C71.3033 13.4502 71.2868 13.4785 71.2557 13.506C71.2227 13.5627 71.2035 13.6349 71.1979 13.7228C71.1942 13.7813 71.1759 13.8389 71.1429 13.8956C71.0752 14.0383 70.9305 14.2349 70.7089 14.4855L70.7283 14.1781L70.6433 14.1286L70.2065 14.7624L69.7258 15.3934L69.5747 15.6924C69.5417 15.7491 69.5087 15.8058 69.4758 15.8625C69.4428 15.9193 69.4098 15.976 69.3769 16.0327L69.289 16.0271L69.3713 16.1205C69.2779 16.2028 69.1918 16.4031 69.113 16.7214C69.0359 17.0105 68.894 17.1632 68.6873 17.1795L68.6706 17.443L68.3767 17.9094L68.5001 18.0494L67.7753 18.3564L67.737 18.2658L67.3085 18.7678C67.0888 18.9891 66.9734 19.1876 66.9623 19.3632C66.9549 19.4803 66.8762 19.5635 66.7261 19.6128C66.5468 19.6603 66.4818 19.7591 66.5311 19.9091L66.3471 20.0298L66.4512 20.4772L66.0449 20.6279C65.9752 20.7999 65.9376 20.9298 65.9321 21.0176L66.1161 20.897L66.1817 21.2538C66.1799 21.2831 66.1936 21.2986 66.2229 21.3005L66.2145 21.4322C66.2035 21.6079 66.1348 21.7652 66.0084 21.9042L65.9151 21.9865C65.8491 22.0999 65.8106 22.2444 65.7995 22.4201L65.6294 22.3211C65.6276 22.3504 65.5955 22.3925 65.5333 22.4473L65.4866 22.4885C65.514 22.5196 65.5259 22.5644 65.5222 22.623L65.5166 22.7108C65.4855 22.7382 65.469 22.7666 65.4672 22.7959L65.3271 22.9193L65.415 22.9248L64.5964 24.0195L64.6676 24.2885L64.5359 24.2802L64.4342 24.4942L64.6538 24.508C64.7178 24.4239 64.7819 24.3398 64.846 24.2557C64.9101 24.1715 64.9733 24.102 65.0355 24.0472L65.0466 23.8715L65.14 23.7892L65.5795 23.1116L65.6674 23.1171L66.8404 21.2954L66.802 21.2048C66.8643 21.1499 66.9741 21.0393 67.1316 20.8729C67.2891 20.7065 67.4465 20.54 67.604 20.3736C67.6681 20.2895 67.7322 20.2054 67.7962 20.1212C67.8896 20.039 67.9674 19.9704 68.0297 19.9155C68.1267 19.7747 68.1771 19.675 68.1808 19.6164L69.8591 17.4739L69.8701 17.2982L69.7906 17.161L69.8729 17.2543L69.8784 17.1665L69.9991 17.3505L70.4881 16.5877L70.532 16.5905L70.5348 16.5466C70.5403 16.4588 70.62 16.3609 70.7737 16.2531C70.9275 16.1452 71.0648 16.0657 71.1856 16.0145C71.1893 15.956 71.1481 15.9093 71.0622 15.8745L71.7268 15.1228L71.8613 15.0872C71.9199 15.0909 72.0773 14.9245 72.3337 14.588C72.6193 14.2533 72.8244 14.0311 72.9489 13.9214L72.8722 13.7402C73.0278 13.6031 73.1687 13.465 73.2951 13.326C73.4507 13.1889 73.5907 13.0655 73.7152 12.9558C73.8708 12.8186 73.9972 12.6796 74.0942 12.5388C74.2206 12.3998 74.3469 12.2608 74.4733 12.1218L74.4843 11.9462L74.6544 12.0451C74.823 11.703 75.0601 11.4388 75.3658 11.2523L75.4508 11.3018L75.4536 11.2579L75.5992 11.0466C75.6707 10.8454 75.7796 10.7494 75.926 10.7586L76.0138 10.7642L76.3378 10.5201L76.3434 10.4322C76.3508 10.3151 76.4423 10.2621 76.6179 10.2732L76.6618 10.276C76.7204 10.2797 76.8275 10.213 76.9831 10.0758L77.0792 9.94963C77.1433 9.8655 77.2074 9.78137 77.2715 9.69724C77.3649 9.61495 77.4701 9.57751 77.5872 9.5849C77.6824 9.47334 77.7923 9.3627 77.9167 9.25299C78.0412 9.14328 78.1785 9.06377 78.3286 9.01445L78.8884 9.22612C78.5516 9.44001 78.244 9.65573 77.9658 9.87331C77.6894 10.0616 77.4258 10.2801 77.1749 10.5288C77.1438 10.5562 77.0679 10.5955 76.9471 10.6467C76.8281 10.6686 76.7375 10.7069 76.6753 10.7618L76.5819 10.8441C76.5471 10.9301 76.483 11.0142 76.3896 11.0965L76.4225 11.2749L76.159 11.2583L75.78 11.6752L75.7361 11.6725C75.4193 12.0346 75.0586 12.3939 74.654 12.7505C74.2513 13.0778 73.9034 13.4673 73.6104 13.9191L73.4786 13.9107C73.2552 14.1906 73.0163 14.4841 72.7617 14.7914C72.5383 15.0712 72.3003 15.3501 72.0476 15.628C71.5441 16.1547 71.0662 16.7418 70.6139 17.3892L70.6111 17.4332L67.3535 21.5482C67.2876 21.6616 67.2216 21.775 67.1557 21.8884C67.0897 22.0018 67.0229 22.1299 66.9551 22.2725L66.7767 22.3054L66.8178 22.352C66.8067 22.5277 66.7682 22.6722 66.7023 22.7856C66.6382 22.8698 66.543 22.9813 66.4166 23.1203L66.1365 23.3672C65.9846 23.4457 65.8903 23.5427 65.8537 23.6579L65.8098 23.6552C65.6138 23.9661 65.3024 24.4755 64.8757 25.1834C64.4489 25.8912 63.9901 26.6412 63.4993 27.4331C63.0066 28.2544 62.5624 29.0053 62.1668 29.6857C61.8041 30.3094 61.4075 31.0045 60.9771 31.7709C60.5448 32.5666 60.1757 33.2928 59.8697 33.9495C59.5326 34.6336 59.3539 35.1367 59.3336 35.4588C59.3243 35.6051 59.3855 35.8 59.5171 36.0435L59.764 36.3236L60.0164 36.5158C60.0108 36.6037 59.9641 36.6448 59.8763 36.6393C59.6055 36.7397 59.3676 36.7835 59.1626 36.7706ZM72.1886 23.1759C71.9251 23.1593 71.6755 22.9231 71.4397 22.4673C71.204 22.0116 71.0925 21.6812 71.1055 21.4763C71.1129 21.3592 71.1532 21.1854 71.2266 20.9549C71.2999 20.7244 71.3686 20.5671 71.4327 20.483L71.4299 20.5269C71.4922 20.472 71.5407 20.4016 71.5755 20.3156C71.6103 20.2296 71.6552 20.2178 71.71 20.28L71.8089 20.1099L71.8528 20.1127C71.9114 20.1164 71.9562 20.1045 71.9873 20.0771C72.0496 20.0222 72.0963 19.9811 72.1274 19.9537L72.1713 19.9564C72.2336 19.9016 72.2665 19.8449 72.2702 19.7863C72.2428 19.7552 72.2748 19.7131 72.3664 19.6601L72.4103 19.6629L72.8743 19.2954L72.8332 19.2487L72.9649 19.257L72.9677 19.2131L73.0638 19.0869L73.1489 19.1364L73.1517 19.0924L73.5251 18.7633L73.5224 18.8072L73.569 18.7661L73.6569 18.7716L73.6624 18.6838L73.7036 18.7305L73.7585 18.5576L73.8025 18.5604C73.8977 18.4488 73.992 18.3519 74.0853 18.2696C74.1805 18.158 74.2904 18.0474 74.4149 17.9377L75.0218 17.4029L75.0957 17.628L75.1397 17.6307L75.233 17.5485C75.2349 17.5192 75.2084 17.4734 75.1535 17.4112C75.2469 17.3289 75.2954 17.2585 75.2991 17.1999L75.4392 17.0765L75.7988 16.9669L75.796 17.0108L75.8371 17.0575C75.8408 16.999 75.861 16.9121 75.8977 16.7968C75.9636 16.6834 76.0259 16.6286 76.0844 16.6322C76.143 16.6359 76.1704 16.6671 76.1667 16.7256L76.3095 16.5583C76.3718 16.5034 76.3892 16.4604 76.3617 16.4293C76.391 16.4312 76.4212 16.4184 76.4523 16.3909C76.5127 16.3654 76.5292 16.337 76.5018 16.3059L76.6664 16.4926C76.7286 16.4378 76.7753 16.3966 76.8064 16.3692C76.8394 16.3125 76.8714 16.2704 76.9025 16.243L76.9326 16.4653L76.9737 16.512L76.9904 16.2485L77.1277 16.169L77.0565 15.9C77.115 15.9037 77.1461 15.8763 77.1498 15.8177C77.1517 15.7884 77.1819 15.7757 77.2404 15.7794C77.299 15.783 77.3557 15.816 77.4105 15.8783L77.5339 16.0183L77.5284 16.1061L77.6162 16.1117C77.4332 16.2177 77.3233 16.3283 77.2867 16.4436C77.25 16.5588 77.1402 16.6695 76.9571 16.7755L76.7815 16.7644L76.2735 17.1291L76.2296 17.1264L76.224 17.2142L75.6555 17.8396C75.4651 18.0628 75.2235 18.1651 74.9308 18.1466L74.9719 18.1933L74.9691 18.2372C74.938 18.2646 74.9215 18.293 74.9197 18.3223L74.9141 18.4101C74.8849 18.4082 74.8428 18.3762 74.7879 18.3139L74.7852 18.3579L73.8954 19.1835L73.8104 19.134L73.4891 19.3342L73.5303 19.3809L73.1101 19.7511L73.1896 19.8884L72.8711 20.0447L72.8601 20.2203C72.8289 20.2477 72.8115 20.2907 72.8078 20.3493C72.6541 20.4572 72.514 20.5806 72.3877 20.7196C72.2906 20.8604 72.2082 21.0022 72.1404 21.1448L72.3105 21.2437C72.3379 21.2749 72.3956 21.2932 72.4834 21.2987C72.5127 21.3006 72.5292 21.2722 72.5329 21.2137C72.564 21.1863 72.6097 21.1598 72.6701 21.1342C72.7305 21.1086 72.8065 21.0693 72.898 21.0163C73.0499 20.9377 73.1405 20.8993 73.1698 20.9012L73.1587 21.0768L73.4744 20.9645L73.3949 20.8272L73.6145 20.8411C73.6712 20.874 73.7434 20.8933 73.8313 20.8988C73.8898 20.9025 73.9502 20.8769 74.0124 20.8221C74.0161 20.7635 74.0336 20.7205 74.0647 20.6931L74.0702 20.6053L74.5204 20.4573L74.5232 20.4134L75.0395 19.917L75.0834 19.9197L75.045 19.8291L75.2646 19.843L75.5008 19.5934L75.5036 19.5495L75.5886 19.5989L75.5941 19.5111C75.7442 19.4618 75.8229 19.3786 75.8303 19.2615C75.834 19.2029 75.8222 19.1581 75.7947 19.127C75.857 19.0721 75.9503 18.9898 76.0748 18.8801C76.1993 18.7704 76.3247 18.646 76.4511 18.5071C76.7019 18.2584 76.9444 18.1414 77.1786 18.1562C77.186 18.0391 77.2345 17.9687 77.3242 17.9449L77.327 17.901C77.3325 17.8132 77.4324 17.6284 77.6265 17.3468C77.8517 17.0377 78.076 16.7432 78.2994 16.4634C78.5521 16.1854 78.7251 16.0053 78.8185 15.923L78.8157 15.9669L78.9174 15.7529L78.9586 15.7996L79.2881 15.4677L79.2608 15.2014L79.3103 15.1164C79.314 15.0578 79.389 15.0332 79.5354 15.0424C79.6836 15.0224 79.787 15.0142 79.8455 15.0179L79.8099 14.8834C79.6636 14.8742 79.5355 14.8073 79.4258 14.6828C79.4569 14.6554 79.5457 14.6463 79.6921 14.6555C79.8495 14.4891 79.9493 14.3044 79.9916 14.1013L80.0355 14.104C80.1966 13.8791 80.3313 13.6084 80.4394 13.2919C80.5183 12.9735 80.6666 12.7184 80.8845 12.5264L80.805 12.3891C80.8728 12.2464 80.9552 12.1047 81.0523 11.9638C81.0815 11.9657 81.0971 11.952 81.0989 11.9227C81.1026 11.8641 81.1191 11.8358 81.1484 11.8376L81.1539 11.7498C81.1632 11.6034 81.155 11.5 81.1294 11.4396C81.1038 11.3792 81.0947 11.2905 81.1021 11.1734C81.1391 10.5879 81.1266 10.0874 81.0646 9.67206C81.0319 9.25851 80.6935 9.03142 80.0495 8.99078C79.9617 8.98524 79.8738 8.97969 79.786 8.97415C79.6982 8.96861 79.6094 8.97771 79.5198 9.00144L78.9406 9.09716L78.8967 9.09439C78.8089 9.08884 78.7512 9.07051 78.7238 9.03939L78.7349 8.86374C78.7404 8.77591 78.8164 8.73662 78.9628 8.74586L79.2701 8.76525L79.2785 8.63351L79.3196 8.6802L79.6408 8.48003L79.8604 8.49388C79.8897 8.49573 79.9199 8.48294 79.951 8.45551L80.2228 8.3404L80.4835 8.40094L80.618 8.36534L80.6152 8.40925C80.6171 8.37998 80.6766 8.36903 80.7937 8.37642C80.9108 8.38381 80.9419 8.35638 80.887 8.29414C81.0316 8.33265 81.1614 8.37024 81.2767 8.4069C81.392 8.44356 81.4779 8.47838 81.5346 8.51135L81.5841 8.4263L81.916 8.75585C81.9434 8.78697 81.959 8.77326 81.9627 8.71471L81.9682 8.62688L82.0121 8.62966C82.2534 8.99758 82.5579 9.29602 82.9256 9.52496C83.2932 9.7539 83.4897 10.1337 83.515 10.6643C83.535 10.8126 83.5404 10.9599 83.5312 11.1062C83.5219 11.2526 83.5127 11.399 83.5035 11.5454L83.4481 12.4236C83.3871 13.3897 83.2201 14.1727 82.9471 14.7727C82.6741 15.3727 82.2209 16.0348 81.5873 16.759C81.5233 16.8432 81.3163 17.0946 80.9666 17.5134C80.6187 17.903 80.2562 18.2916 79.879 18.6793C79.5037 19.0377 79.2429 19.2123 79.0965 19.203L79.176 19.3403C79.0241 19.4189 78.8364 19.5981 78.613 19.8779C78.3915 20.1285 78.2057 20.2784 78.0556 20.3277L78.0418 20.5473L77.1686 21.1094L77.0863 21.016L76.5811 21.3369L76.5784 21.3808C76.6058 21.4119 76.6488 21.4293 76.7073 21.433C76.7366 21.4349 76.7494 21.4651 76.7457 21.5236L76.7429 21.5675L76.2955 21.6715L76.2927 21.7155L76.0126 21.9623L76.0482 22.0968L75.5763 21.8907L75.5925 22.3326L75.0544 22.475L75.0489 22.5628C74.6883 22.687 74.4458 22.804 74.3213 22.9137C74.1457 22.9026 74.0277 22.9099 73.9673 22.9354L73.6077 23.045L73.5665 22.9983L73.5637 23.0422L73.1246 23.0145L73.0257 23.1846L72.4109 23.1458C72.3505 23.1714 72.2764 23.1814 72.1886 23.1759ZM63.1511 26.6617C63.4405 26.2685 63.7472 25.8323 64.0714 25.3531C64.2362 25.0695 64.4148 24.8016 64.6071 24.5492L64.198 24.7438C64.1632 24.8298 64.1119 24.9441 64.0441 25.0868C63.9763 25.2295 63.9113 25.3283 63.849 25.3831C63.7027 25.3739 63.6058 25.2796 63.5583 25.1002L63.4867 25.5366L63.6101 25.6766C63.5953 25.9108 63.5394 26.0984 63.4423 26.2392C63.2867 26.3763 63.1897 26.5172 63.1511 26.6617Z" fill="#00657E"></path><path d="M84.9276 25.9196C84.6056 25.8993 84.2863 25.835 83.9698 25.7269C83.5125 25.5217 83.0746 25.0091 82.6561 24.1891L83.0129 24.1234L82.7194 23.8845L82.4373 22.7645L82.3934 22.7617C82.3697 22.672 82.3634 22.5394 82.3745 22.3637L82.3939 22.0563C82.4012 21.9392 82.4874 21.7389 82.6522 21.4554C82.8171 21.1719 82.9663 20.9021 83.1001 20.646L82.6554 20.7061L82.6693 20.4866C82.7004 20.4591 82.7489 20.3887 82.8148 20.2753C82.8497 20.1893 82.9266 20.1354 83.0455 20.1135C83.0729 20.1446 83.0848 20.1895 83.0811 20.248L83.1745 20.1658L83.1883 19.9462C83.1957 19.8291 83.2031 19.712 83.2105 19.5949C83.249 19.4504 83.3149 19.337 83.4083 19.2547C83.4194 19.079 83.4405 18.9775 83.4716 18.9501L83.5266 18.7772L83.6144 18.7827L83.6255 18.6071L83.9112 18.2724C84.0668 18.1352 84.1592 18.0676 84.1885 18.0694L84.1913 18.0255C84.1601 18.053 84.1153 18.0648 84.0568 18.0611C83.9397 18.0537 83.8848 17.9915 83.8922 17.8744C83.894 17.8451 83.9105 17.8168 83.9416 17.7893L83.9555 17.5698C83.9866 17.5424 84.0059 17.4701 84.0133 17.353C84.0206 17.2359 83.9969 17.1462 83.9421 17.084L84.2716 16.7521L84.4445 16.8071L84.4034 16.7604L84.4912 16.7659L84.5379 16.7248L84.7001 16.2501L84.8975 16.6152L85.0763 15.877C85.1148 15.7325 85.1533 15.5879 85.1919 15.4434C85.2304 15.2989 85.2689 15.1544 85.3074 15.0098L85.7932 14.9964L85.8154 14.6451L85.6836 14.6368L85.6975 14.4172L85.9309 14.2115L85.9281 14.2554L85.9748 14.2143L85.9887 13.9947L86.4005 13.7562L86.4116 13.5805C86.6239 13.4764 86.8125 13.2825 86.9773 12.999C87.0781 12.7996 87.2913 12.6808 87.617 12.6426L87.3536 12.626L87.4003 12.5848L87.2163 12.7055L87.2385 12.3542L87.3263 12.3597L87.3757 12.2747L87.4197 12.2774L87.5186 12.1073L87.5324 11.8878C87.7155 11.7817 87.9003 11.6464 88.0871 11.4819C88.3031 11.3192 88.4176 11.1353 88.4305 10.9304L88.6144 10.8098L88.6255 10.6341L88.7956 10.733L89.3998 10.2421L89.4108 10.0664L89.776 9.86904L89.9683 9.61664C89.9738 9.52882 90.0205 9.48768 90.1083 9.49322C90.1376 9.49507 90.1943 9.52803 90.2784 9.59213C90.3937 9.62879 90.4797 9.66361 90.5364 9.69658L90.7998 9.7132C91.2682 9.74276 91.7256 9.94796 92.1718 10.3288C92.6199 10.6804 92.9902 11.1006 93.2826 11.5893C93.5751 12.078 93.7066 12.5566 93.677 13.025C93.6678 13.1713 93.7024 13.3205 93.781 13.4724C93.8048 13.5621 93.8139 13.6508 93.8083 13.7386C93.832 13.8283 93.8402 13.9317 93.8328 14.0488L93.8217 14.2245C93.8144 14.3416 93.7951 14.4138 93.764 14.4413C93.1924 15.5809 92.3455 16.659 91.2233 17.6757C90.1303 18.6942 89.0082 19.4758 87.8569 20.0203C87.6153 20.1227 87.3445 20.2231 87.0443 20.3218C86.7442 20.4204 86.4477 20.4605 86.155 20.442C86.0672 20.4365 86.0095 20.4181 85.9821 20.387L85.6803 20.2798C85.7699 20.256 85.9063 20.1912 86.0893 20.0851C86.1497 20.0596 86.2101 20.034 86.2705 20.0084C86.3309 19.9828 86.3913 19.9572 86.4517 19.9317L86.7235 19.8166C86.782 19.8202 86.8269 19.8084 86.858 19.781L86.8169 19.7343C86.8243 19.6172 86.9011 19.5632 87.0475 19.5725C87.2306 19.4665 87.3815 19.4025 87.5005 19.3806L87.9479 19.2766C88.1273 19.2291 88.2764 19.1944 88.3954 19.1726C88.5454 19.1232 88.6242 19.04 88.6316 18.9229C88.7542 18.8425 88.9126 18.6614 89.1067 18.3798C89.3338 18.0414 89.494 17.8311 89.5874 17.7488L89.9882 17.6859L90.4688 17.0549L90.3921 16.8737L90.7545 16.7203L90.7656 16.5446L90.8534 16.5501C91.1976 16.2192 91.4658 15.9275 91.6581 15.6751C91.8815 15.3953 92.0812 15.0258 92.2571 14.5666C92.2608 14.5081 92.3065 14.4816 92.3944 14.4871L92.3971 14.4432C92.595 14.103 92.704 13.7718 92.7243 13.4498C92.7687 12.7472 92.4542 12.3747 91.7809 12.3322C91.7223 12.3285 91.65 12.3092 91.5641 12.2744C91.447 12.267 91.3866 12.2926 91.3829 12.3512L91.6024 12.365L91.3718 12.5268C91.2217 12.5761 91.0698 12.6547 90.916 12.7626C90.7915 12.8723 90.7228 13.0296 90.7099 13.2345L90.5343 13.2234C90.5928 13.2271 90.633 13.2885 90.6549 13.4074C90.45 13.3945 90.2999 13.4438 90.2047 13.5554L90.416 13.7009C90.3537 13.7558 90.2768 13.8097 90.1853 13.8627C90.0956 13.8865 90.005 13.9248 89.9135 13.9779C89.8238 14.0016 89.7332 14.04 89.6417 14.093C89.5521 14.1167 89.4761 14.156 89.4139 14.2108C89.077 14.4247 88.9022 14.6341 88.8893 14.8391C88.8874 14.8683 88.9002 14.8985 88.9276 14.9297C88.955 14.9608 88.9825 14.9919 89.0099 15.023C89.0666 15.056 89.1224 15.1036 89.1772 15.1658L88.8287 15.0998C88.8287 15.0998 88.8434 15.1007 88.8726 15.1025C88.9037 15.0751 88.9339 15.0623 88.9632 15.0642C88.8461 15.0568 88.7574 15.0659 88.697 15.0915C88.6384 15.0878 88.6366 15.117 88.6914 15.1793L88.7326 15.226C88.7326 15.226 88.7179 15.225 88.6887 15.2232C88.6887 15.2232 88.6877 15.2378 88.6859 15.2671C88.6548 15.2945 88.6383 15.3229 88.6364 15.3522L88.5486 15.3466C88.4223 15.4856 88.2959 15.6246 88.1696 15.7636C88.0725 15.9044 87.9901 16.0462 87.9223 16.1888C87.7886 16.4449 87.611 16.6983 87.3894 16.9488L87.6829 17.1878L87.3756 17.1684L87.1888 17.3329L87.175 17.5525L86.8976 17.7554L86.9827 17.8049L86.4965 18.5237L86.362 18.5593L86.3398 18.9106L85.8235 19.4071L85.8563 19.5855L85.7685 19.5799L85.7491 19.8873C85.5313 20.0793 85.3829 20.3345 85.304 20.6528C85.2563 20.9437 85.1207 21.2291 84.8973 21.5089L85.1608 21.5255L84.7956 21.7229L84.7873 21.8547C84.7562 21.8821 84.7388 21.9251 84.7351 21.9836C84.7277 22.1007 84.7212 22.2032 84.7157 22.291C84.7394 22.3807 84.7632 22.4704 84.7869 22.56C84.8106 22.6497 84.8197 22.7385 84.8142 22.8263C84.8379 22.916 84.8461 23.0193 84.8387 23.1364C84.8239 23.3707 84.8923 23.6836 85.044 24.0752C85.2267 24.4395 85.4206 24.6281 85.6255 24.641C86.1817 24.6761 86.7472 24.5648 87.3219 24.3071C87.8692 24.0184 88.4218 23.8769 88.9799 23.8827L89.9492 23.1944C90.4416 22.8434 90.8801 22.4155 91.2646 21.9107C91.6785 21.4077 92.1316 20.9808 92.624 20.6297L92.6679 20.6325L92.5856 20.5391C92.6808 20.4276 92.8237 20.2603 93.0141 20.0371C93.2045 19.814 93.319 19.6302 93.3575 19.4857C93.3886 19.4582 93.407 19.4006 93.4125 19.3128C93.4162 19.2542 93.4336 19.2112 93.4647 19.1838C93.5325 19.0411 93.625 18.9735 93.7421 18.9809C93.8592 18.9883 93.9131 19.0652 93.9039 19.2115C93.8983 19.2994 93.88 19.357 93.8489 19.3844C93.8304 19.6772 93.6719 20.0933 93.3733 20.6329C93.1058 21.1451 92.8074 21.4496 92.478 21.5464L92.4697 21.6781C92.3141 21.8152 92.1548 22.0109 91.9918 22.2652C91.7702 22.5157 91.4544 22.8632 91.0442 23.3076C90.6634 23.7538 90.3558 23.9695 90.1216 23.9548L89.4819 24.3112L89.4708 24.4868C89.4616 24.6332 89.3673 24.7301 89.188 24.7776C89.0616 24.9166 88.9116 24.9659 88.7378 24.9255C88.6389 25.0956 88.4851 25.2035 88.2765 25.2491C88.1868 25.2729 88.0504 25.3377 87.8674 25.4438C87.8033 25.5279 87.6514 25.6065 87.4117 25.6795C87.2012 25.7544 87.0511 25.8037 86.9614 25.8275C86.8077 25.9353 86.6274 25.9974 86.4206 26.0138C86.2157 26.0009 86.0401 25.9898 85.8937 25.9805L84.9276 25.9196Z" fill="#00657E"></path><path d="M99.9975 24.0489C99.9097 24.0433 99.8383 24.0094 99.7835 23.9472C99.7524 23.9746 99.6636 23.9837 99.5172 23.9745C99.1367 23.9505 98.7727 23.663 98.4254 23.112C98.0781 22.561 97.9164 22.0953 97.9404 21.7147C97.9829 21.0414 98.2029 20.3498 98.6004 19.6401L99.6939 17.6811C99.8917 17.3409 99.9943 17.1122 100.002 16.9951C100.002 16.9951 99.9359 16.8734 99.8043 16.63L99.5986 16.3966C99.5438 16.3343 99.488 16.2867 99.4313 16.2537C99.4057 16.1933 99.3655 16.132 99.3106 16.0698C99.1479 15.8538 98.987 15.6085 98.828 15.3339C98.669 15.0594 98.5713 14.7446 98.5349 14.3896C98.4726 14.4444 98.3271 14.6557 98.0981 15.0233C97.8692 15.391 97.6412 15.744 97.4141 16.0824C97.187 16.4207 97.0149 16.5862 96.8978 16.5788C96.8392 16.5751 96.7962 16.5577 96.7688 16.5266C96.7414 16.4955 96.6984 16.4781 96.6398 16.4744C96.5813 16.4707 96.5007 16.5832 96.3981 16.8118C96.2699 16.9801 96.0923 17.2334 95.8652 17.5718C95.6399 17.8809 95.4156 18.1753 95.1922 18.4552C94.9688 18.735 94.7693 18.8693 94.5937 18.8583C94.4766 18.8509 94.4217 18.7886 94.4291 18.6715C94.4346 18.5837 94.5033 18.4264 94.6352 18.1996C94.7689 17.9435 94.9164 17.703 95.0775 17.478C95.2698 17.2256 95.3971 17.072 95.4593 17.0171C95.842 16.5416 96.1625 16.121 96.4207 15.7552C96.6789 15.3894 96.9234 15.008 97.1542 14.6111C97.3539 14.2416 97.5535 13.8721 97.7532 13.5026C97.984 13.1057 98.2468 12.6667 98.5417 12.1856C98.6261 11.7795 98.7407 11.3605 98.8855 10.9288C99.4078 9.63913 99.9921 8.52973 100.639 7.60059C101.316 6.64403 102.141 5.68207 103.113 4.7147C103.331 4.52271 103.581 4.28865 103.863 4.01252C104.176 3.70897 104.487 3.43469 104.797 3.18969C105.106 2.94468 105.363 2.82865 105.568 2.84158C105.744 2.85266 105.944 2.93878 106.169 3.09993C106.282 3.16587 106.381 3.23089 106.465 3.29498C106.549 3.35907 106.634 3.42316 106.718 3.48725L107.565 4.02571C107.876 4.22168 108.02 4.50995 107.996 4.89053C107.987 5.03691 107.966 5.12381 107.935 5.15124C107.827 5.46772 107.512 5.80055 106.991 6.14972C106.5 6.47147 105.95 6.80416 105.34 7.14779C104.76 7.49327 104.283 7.83057 103.91 8.15971C103.353 8.59486 102.866 9.09318 102.449 9.65467C102.031 10.2162 101.64 10.8234 101.276 11.4764C101.239 11.5917 101.189 11.6914 101.125 11.7755C101.09 11.8615 101.054 11.9621 101.017 12.0773C100.975 12.2804 100.887 12.51 100.754 12.7661C100.721 12.8228 100.687 12.8941 100.652 12.9801C100.619 13.0368 100.6 13.1091 100.594 13.1969C100.585 13.3433 100.593 13.4467 100.619 13.5071C100.642 13.5967 100.65 13.7148 100.64 13.8611C100.629 14.0368 100.607 14.153 100.574 14.2097C100.539 14.2956 100.517 14.4265 100.505 14.6021C100.485 14.9241 100.627 15.2417 100.93 15.5547C101.236 15.8385 101.525 16.1507 101.797 16.4912C102.099 16.8335 102.237 17.2096 102.211 17.6195C102.189 17.9708 102.045 18.3879 101.779 18.8708C101.514 19.3537 101.219 19.8347 100.894 20.3139C100.57 20.7931 100.308 21.2321 100.106 21.6309L99.8532 22.144L99.746 22.4458C99.7423 22.5044 99.7551 22.5346 99.7843 22.5364L99.8638 22.6737C100.127 22.6903 100.505 22.5232 100.998 22.1721C101.49 21.8211 101.984 21.4408 102.48 21.0312C102.978 20.5924 103.321 20.2907 103.508 20.1261C103.883 19.7677 104.23 19.3928 104.548 19.0014C104.869 18.5808 105.175 18.1592 105.466 17.7367C105.534 17.594 105.632 17.4386 105.76 17.2703C105.919 17.0746 106.072 16.9814 106.218 16.9906C106.394 17.0017 106.475 17.1097 106.462 17.3146C106.451 17.4903 106.268 17.8314 105.913 18.338C105.589 18.8173 105.235 19.2946 104.853 19.7701C104.47 20.2456 104.201 20.552 104.045 20.6891L103.996 20.7742L103.993 20.8181C103.892 21.0174 103.752 21.1409 103.573 21.1883C103.542 21.2158 103.493 21.2862 103.427 21.3996C103.361 21.513 103.313 21.5834 103.282 21.6108C103.278 21.6694 103.23 21.7252 103.139 21.7782L102.96 21.811C102.924 21.9263 102.829 22.0232 102.677 22.1018L102.397 22.3486C102.368 22.3468 102.353 22.3605 102.351 22.3898C102.349 22.419 102.333 22.4328 102.304 22.4309C102.264 22.6047 102.141 22.6851 101.936 22.6722C101.87 22.7856 101.773 22.9265 101.645 23.0947C101.546 23.2648 101.423 23.3453 101.277 23.336C101.118 23.5317 100.921 23.6222 100.687 23.6074C100.656 23.6348 100.638 23.6778 100.634 23.7364C100.633 23.7656 100.616 23.794 100.585 23.8214C100.517 23.9641 100.381 24.029 100.176 24.016C100.145 24.0435 100.085 24.0544 99.9975 24.0489Z" fill="#00657E"></path><path d="M5.45722 49.3237C4.7684 49.2447 3.98923 49.0027 3.1197 48.5977C2.29323 48.1976 1.58919 47.6808 1.00758 47.0471C0.425979 46.4133 0.110086 45.7447 0.0599054 45.0411C-0.000147063 44.4235 0.00190952 43.8349 0.0660752 43.2753C0.233893 41.8115 0.778616 40.6745 1.70024 39.8642C2.62187 39.0539 3.66772 38.3015 4.83778 37.6069C4.93375 37.5307 5.05125 37.4569 5.19028 37.3856C5.37729 37.2762 5.53537 37.2289 5.66453 37.2437C6.26368 36.9635 6.83884 36.7023 7.39001 36.4601C7.98916 36.1799 8.60984 35.9021 9.25205 35.6268C9.48211 35.5223 9.75523 35.4228 10.0714 35.3282C10.3346 35.3148 10.5838 35.2343 10.8188 35.0867C11.1878 34.911 11.5354 34.7327 11.8614 34.552C12.2305 34.3763 12.5781 34.198 12.9041 34.0173C13.5132 33.651 14.2482 33.5172 15.1092 33.6159L15.2384 33.6307L15.3601 33.7101C16.3947 33.4361 17.5825 33.1579 18.9234 32.8755C20.3073 32.598 21.6814 32.4066 23.0456 32.3013C24.4578 32.1579 25.6805 32.1454 26.7137 32.2639C26.8429 32.2787 27.1393 32.3563 27.603 32.4967C28.0716 32.594 28.2936 32.7503 28.2689 32.9656C28.2541 33.0947 28.1366 33.1685 27.9164 33.1869C27.7442 33.1671 27.6366 33.1548 27.5936 33.1498C27.1101 33.1817 26.6796 33.1323 26.302 33.0018C26.0868 32.9771 25.8475 32.9715 25.5843 32.9849C25.369 32.9602 25.1513 32.9571 24.9311 32.9754C24.8867 33.3629 24.6922 33.5369 24.3478 33.4974C23.7451 33.4283 23.1202 33.5529 22.4731 33.8713C21.869 34.1946 21.244 34.3192 20.5983 34.2452C20.383 34.2205 20.1413 34.2364 19.8731 34.2929C19.6049 34.3494 19.3632 34.3653 19.148 34.3406C18.7174 34.2913 18.3416 34.3354 18.0205 34.4731C17.6994 34.6107 17.3187 34.6979 16.8783 34.7347C16.6433 34.8822 16.4348 34.9891 16.2527 35.0555C16.1186 35.0837 15.9009 35.0806 15.5995 35.046L15.4132 34.9592L15.2914 34.8798C15.0663 34.9413 14.8197 35.0002 14.5515 35.0567C14.2833 35.1132 14.0151 35.1697 13.7469 35.2262L12.2596 35.6445C11.0232 36.157 9.88205 36.7895 8.8362 37.5419C7.79529 38.2513 6.69365 38.5393 5.53126 38.4061C5.28145 38.6828 4.97872 39.0406 4.62307 39.4796C4.27235 39.8756 4.07725 40.2458 4.03776 40.5902C3.99828 40.9346 3.77987 41.1276 3.38253 41.1693L3.3085 41.8151C3.26901 42.1595 3.1293 42.427 2.88936 42.6176C3.07994 42.8575 3.16536 43.0636 3.14562 43.2358C3.12094 43.451 3.01509 43.6134 2.82808 43.7228C2.86126 43.8138 2.89197 43.9264 2.92021 44.0605C2.95339 44.1515 2.96505 44.2401 2.95517 44.3262C2.94037 44.4553 2.86345 44.5556 2.72443 44.6269L2.71702 44.6914C2.94571 44.9794 3.34908 45.2655 3.92712 45.5499C4.54821 45.8392 5.03096 46.0035 5.37537 46.043C6.02114 46.1171 6.9259 46.0245 8.08966 45.7654C9.25835 45.4632 10.4775 45.1014 11.7471 44.6799C13.0647 44.2203 14.3152 43.7749 15.4987 43.3435C16.6822 42.9122 17.6166 42.5614 18.3019 42.291L18.3093 42.2264C18.6106 42.261 18.8259 42.2856 18.955 42.3004C19.0891 42.2722 19.1974 42.0883 19.28 41.7489L19.9278 41.2343L20.7747 41.266C21.1869 41.0951 21.5965 40.9458 22.0037 40.8181C22.4159 40.6472 22.8231 40.5194 23.2254 40.4347C23.4222 40.2392 23.9857 39.8894 24.9159 39.3854C25.894 38.8433 27.0062 38.273 28.2525 37.6743C29.5037 37.0327 30.683 36.4482 31.7902 35.9209C32.9406 35.3985 33.7888 35.0378 34.3351 34.8387C34.7239 34.4907 35.0704 33.9416 35.3745 33.1914C35.6786 32.4411 35.9008 31.8342 36.0412 31.3705L36.0083 30.5162C35.9814 29.9897 35.8106 29.5775 35.4958 29.2798C34.9904 28.742 34.0613 28.2866 32.7083 27.9134C31.5226 27.6029 29.99 27.2746 28.1106 26.9282C26.2311 26.5819 24.5645 26.2818 23.1106 26.0279C22.2164 25.8381 21.3462 25.6293 20.5 25.4014C19.6968 25.1785 18.9416 24.9174 18.2344 24.6183C16.772 24.0581 15.5496 23.3073 14.5671 22.3659C13.6277 21.4295 13.1317 20.2386 13.0794 18.7932L12.6623 19.0071L12.4908 18.7911L12.5352 18.4037C12.4971 18.3557 12.4879 18.2456 12.5076 18.0734C12.6804 16.5666 13.2141 15.1448 14.1089 13.808C15.0467 12.4762 16.1444 11.2717 17.4019 10.1946C18.7074 9.07936 19.9883 8.17939 21.2444 7.49469C22.9128 6.63915 24.6241 5.78854 26.3785 4.94287C28.1329 4.0972 29.9297 3.45267 31.7688 3.00926C32.6694 2.76357 33.5815 2.60645 34.5053 2.53789C35.4341 2.42629 36.3579 2.35773 37.2768 2.33223C37.6311 2.28562 37.9614 2.25806 38.2677 2.24956C38.617 2.24599 38.9664 2.24243 39.3157 2.23886C39.6651 2.2353 39.9953 2.20774 40.3066 2.15619C40.6609 2.10957 40.9936 2.06049 41.3048 2.00894C42.3811 2.13233 43.402 2.35842 44.3675 2.6872C45.338 2.97293 45.9767 3.67862 46.2839 4.80426C46.6431 4.71459 46.8449 4.47602 46.8893 4.08856C46.9091 3.91635 46.9263 3.76568 46.9411 3.63652C46.9559 3.50737 46.9517 3.35422 46.9284 3.17708C46.9051 2.99994 46.9156 2.71764 46.9601 2.33017C47.0193 1.81356 46.9561 1.41376 46.7704 1.13077L47.1155 0.97406L47.2447 0.988867C47.7183 1.04316 48.4113 1.27528 49.3239 1.68523C50.2365 2.09518 51.1201 2.56723 51.9749 3.1014C52.8345 3.59251 53.3928 4.04907 53.6497 4.47109L53.3799 5.68324L51.6047 6.33025L50.9091 6.11965C50.5499 6.20932 50.3241 6.46694 50.2317 6.89252C50.1442 7.27504 50.0758 7.68156 50.0264 8.11208C49.982 8.49954 49.8232 8.74304 49.5501 8.84258L48.6683 8.54519L48.5963 8.60237L49.3173 9.73185L49.1512 10.0399L49.4296 10.4644L49.1491 10.6285L48.4684 10.2888C48.2899 10.7045 48.171 11.1706 48.1118 11.6873C48.0525 12.2039 47.9361 12.6485 47.7625 13.0212C47.5939 13.3508 47.2463 13.529 46.7199 13.5559C46.1871 14.0182 45.8745 14.4621 45.782 14.8877C45.6896 15.3133 45.5616 15.6694 45.3979 15.9559C45.2772 16.2474 44.8196 16.4348 44.0249 16.5182L44.0397 16.389L44.3688 14.6603L43.9611 14.221C44.1657 13.1976 44.3918 12.1767 44.6394 11.1583C44.887 10.1399 45.2183 9.15285 45.6332 8.19722C45.0946 7.56845 44.5056 6.99932 43.8661 6.48984C43.2267 5.98035 42.4764 5.67625 41.6154 5.57753C41.4862 5.56273 41.3571 5.54792 41.2279 5.53311C41.0988 5.5183 40.9672 5.52502 40.8331 5.55326C40.699 5.58151 40.5674 5.58823 40.4382 5.57342C40.309 5.55861 40.1799 5.54381 40.0507 5.529C40.1023 5.84023 39.8599 6.05233 39.3235 6.16531C38.7921 6.23523 38.4188 6.25786 38.2035 6.23318C37.9883 6.2085 37.8234 6.12418 37.7091 5.98021C37.4607 5.8645 37.2719 5.79924 37.1427 5.78443C36.9077 5.93196 36.6752 6.05795 36.4451 6.16243C36.2581 6.27184 35.9924 6.3068 35.648 6.26732C35.3036 6.22783 34.9634 6.34149 34.6275 6.6083C34.2436 6.91322 33.7934 7.03607 33.2767 6.97684C32.8893 6.93242 32.5572 6.7853 32.2805 6.53549C32.1034 6.5588 31.885 6.75185 31.6253 7.11463C31.4087 7.48235 31.0851 7.64153 30.6546 7.59217C30.5685 7.5823 30.5064 7.55337 30.4683 7.50538C30.4301 7.4574 30.3896 7.43094 30.3465 7.426C30.3035 7.42106 30.2629 7.3946 30.2248 7.34661C30.0709 7.54706 29.9104 7.61589 29.7431 7.55309C29.5377 7.44231 29.3151 7.48221 29.0751 7.67279C28.9361 7.74408 28.8161 7.83937 28.7152 7.95866C28.5713 8.073 28.3916 8.11784 28.1764 8.09316L27.6154 8.42139L27.3867 8.13347C26.9745 8.3043 26.6891 8.51147 26.5303 8.75497C26.3765 8.95542 26.2036 9.13187 26.0116 9.28433C25.8246 9.39374 25.4513 9.41637 24.8916 9.3522L23.2085 10.3369C23.0695 10.4082 22.9495 10.5035 22.8486 10.6228C22.6948 10.8232 22.5293 10.9351 22.3521 10.9584C22.1687 11.4172 21.8204 11.7916 21.3074 12.0817C20.8374 12.3768 20.3772 12.5857 19.927 12.7086C19.7104 13.0763 19.4083 13.2379 19.0209 13.1935C18.7329 13.4222 18.3797 13.8397 17.9613 14.446C17.5859 15.0572 17.2296 15.6924 16.8923 16.3516C16.603 16.9727 16.4361 17.477 16.3917 17.8644C16.2979 18.6824 16.2818 19.204 16.3432 19.4291C16.4095 19.6112 16.5669 19.7601 16.8154 19.8758C17.1069 19.9964 17.4813 20.3447 17.9387 20.9205C18.353 21.4914 18.9593 21.9099 19.7575 22.1759C20.5558 22.4419 21.2919 22.6789 21.9659 22.887C22.1381 22.9068 22.2168 22.9812 22.202 23.1104C22.1921 23.1965 22.1441 23.2346 22.058 23.2247L21.7997 23.1951C21.4123 23.1507 20.8551 23.065 20.1281 22.938C19.4492 22.773 18.7967 22.5673 18.1707 22.3211C17.5496 22.0318 17.1296 21.7001 16.9108 21.3261C16.8727 21.2781 16.8561 21.2326 16.861 21.1895L16.8039 21.1175C16.2011 21.0484 15.7547 20.7574 15.4646 20.2443C15.1794 19.6882 15.0689 19.1303 15.1331 18.5707C15.1775 18.1832 15.2311 17.9058 15.2939 17.7386C15.3518 17.6144 15.3881 17.4877 15.4029 17.3585C15.4177 17.2294 15.4565 17.0811 15.5193 16.9139L15.3901 16.8991C15.1749 16.8744 15.0186 17.0964 14.9212 17.565C14.867 18.0386 14.8349 18.3184 14.825 18.4045C14.8003 18.6198 14.7756 18.835 14.751 19.0503C14.7312 19.2225 14.7379 19.3541 14.7711 19.4451C14.8249 20.4981 15.2932 21.3587 16.1762 22.027C17.1022 22.7002 18.2823 23.2498 19.7164 23.6759C21.1555 24.059 22.712 24.3683 24.3861 24.6039C26.1081 24.8013 27.8111 24.9748 29.4951 25.1242C31.1741 25.3167 32.8291 25.5283 34.4601 25.7589C36.0911 25.9895 37.5782 26.3344 38.9213 26.7937C40.2693 27.21 41.3177 27.7664 42.0666 28.4629C42.8155 29.1594 43.1258 30.0673 42.9974 31.1866C42.9283 31.7893 42.7301 32.3773 42.4027 32.9504C42.1959 33.232 42.0107 33.5161 41.847 33.8026C41.7263 34.0941 41.6057 34.3856 41.485 34.6771C40.7567 34.9425 40.3058 35.2616 40.1322 35.6342C39.9635 35.9638 39.6725 36.4102 39.259 36.9735C38.9908 37.0299 38.5952 37.2463 38.0723 37.6225C37.5924 38.0037 37.115 38.3633 36.6401 38.7014C36.1701 38.9965 35.8059 39.1292 35.5476 39.0996C35.2315 39.1942 34.9319 39.3343 34.6489 39.5199C34.409 39.7105 34.2262 39.9731 34.1006 40.3076L33.7999 40.0769C33.1994 40.7495 32.2206 41.4878 30.8635 42.2918C29.4683 43.0478 27.8579 43.7791 26.0322 44.4858C24.2495 45.1974 22.3402 45.8726 20.3042 46.5115C18.2731 47.1074 16.3115 47.6676 14.4194 48.1922C12.4942 48.6257 10.7344 48.9473 9.14017 49.1571C7.58895 49.3718 6.3613 49.4274 5.45722 49.3237ZM43.0575 18.1083L43.4067 16.7744L44.0154 17.1714L43.0575 18.1083ZM37.4997 28.9207L37.7527 28.4263L37.3303 28.1161L36.8412 28.3872L37.4997 28.9207ZM41.9177 32.0442L41.9325 31.9151L41.3036 31.1233L41.2148 31.8982L41.9177 32.0442ZM40.1108 33.5381L40.8656 33.2321C40.9396 32.5863 40.9127 32.0599 40.7849 31.6526C40.545 31.8432 40.3217 32.0793 40.1149 32.3609C39.9561 32.6044 39.857 32.8984 39.8175 33.2428L39.7953 33.4365L40.1108 33.5381ZM40.293 34.8021L41.1938 33.7931L41.2086 33.664L39.6493 34.1395L39.9203 34.6285L40.293 34.8021ZM36.3986 37.954L37.4615 37.8142L38.2056 36.4601L37.0539 37.3749L36.6315 37.0648L36.3489 37.8175L36.3986 37.954Z" fill="#00657E"></path><path d="M38.825 40.025C38.825 38.625 39.1 37.3833 39.65 36.3C40.2167 35.2167 40.9833 34.3833 41.95 33.8C42.9167 33.2167 43.9917 32.925 45.175 32.925C46.075 32.925 46.9333 33.125 47.75 33.525C48.5667 33.9083 49.2167 34.425 49.7 35.075V28.5H53.25V47H49.7V44.95C49.2667 45.6333 48.6583 46.1833 47.875 46.6C47.0917 47.0167 46.1833 47.225 45.15 47.225C43.9833 47.225 42.9167 46.925 41.95 46.325C40.9833 45.725 40.2167 44.8833 39.65 43.8C39.1 42.7 38.825 41.4417 38.825 40.025ZM49.725 40.075C49.725 39.225 49.5583 38.5 49.225 37.9C48.8917 37.2833 48.4417 36.8167 47.875 36.5C47.3083 36.1667 46.7 36 46.05 36C45.4 36 44.8 36.1583 44.25 36.475C43.7 36.7917 43.25 37.2583 42.9 37.875C42.5667 38.475 42.4 39.1917 42.4 40.025C42.4 40.8583 42.5667 41.5917 42.9 42.225C43.25 42.8417 43.7 43.3167 44.25 43.65C44.8167 43.9833 45.4167 44.15 46.05 44.15C46.7 44.15 47.3083 43.9917 47.875 43.675C48.4417 43.3417 48.8917 42.875 49.225 42.275C49.5583 41.6583 49.725 40.925 49.725 40.075ZM69.5434 39.775C69.5434 40.275 69.51 40.725 69.4434 41.125H59.3184C59.4017 42.125 59.7517 42.9083 60.3684 43.475C60.985 44.0417 61.7434 44.325 62.6434 44.325C63.9434 44.325 64.8684 43.7667 65.4184 42.65H69.1934C68.7934 43.9833 68.0267 45.0833 66.8934 45.95C65.76 46.8 64.3684 47.225 62.7184 47.225C61.385 47.225 60.185 46.9333 59.1184 46.35C58.0684 45.75 57.2434 44.9083 56.6434 43.825C56.06 42.7417 55.7684 41.4917 55.7684 40.075C55.7684 38.6417 56.06 37.3833 56.6434 36.3C57.2267 35.2167 58.0434 34.3833 59.0934 33.8C60.1434 33.2167 61.3517 32.925 62.7184 32.925C64.035 32.925 65.21 33.2083 66.2434 33.775C67.2934 34.3417 68.1017 35.15 68.6684 36.2C69.2517 37.2333 69.5434 38.425 69.5434 39.775ZM65.9184 38.775C65.9017 37.875 65.5767 37.1583 64.9434 36.625C64.31 36.075 63.535 35.8 62.6184 35.8C61.7517 35.8 61.0184 36.0667 60.4184 36.6C59.835 37.1167 59.4767 37.8417 59.3434 38.775H65.9184ZM71.198 40.075C71.198 38.6417 71.4897 37.3917 72.073 36.325C72.6564 35.2417 73.4647 34.4083 74.498 33.825C75.5314 33.225 76.7147 32.925 78.048 32.925C79.7647 32.925 81.1814 33.3583 82.298 34.225C83.4314 35.075 84.1897 36.275 84.573 37.825H80.798C80.598 37.225 80.2564 36.7583 79.773 36.425C79.3064 36.075 78.723 35.9 78.023 35.9C77.023 35.9 76.2314 36.2667 75.648 37C75.0647 37.7167 74.773 38.7417 74.773 40.075C74.773 41.3917 75.0647 42.4167 75.648 43.15C76.2314 43.8667 77.023 44.225 78.023 44.225C79.4397 44.225 80.3647 43.5917 80.798 42.325H84.573C84.1897 43.825 83.4314 45.0167 82.298 45.9C81.1647 46.7833 79.748 47.225 78.048 47.225C76.7147 47.225 75.5314 46.9333 74.498 46.35C73.4647 45.75 72.6564 44.9167 72.073 43.85C71.4897 42.7667 71.198 41.5083 71.198 40.075ZM93.2871 47.225C91.9538 47.225 90.7538 46.9333 89.6871 46.35C88.6204 45.75 87.7788 44.9083 87.1621 43.825C86.5621 42.7417 86.2621 41.4917 86.2621 40.075C86.2621 38.6583 86.5704 37.4083 87.1871 36.325C87.8204 35.2417 88.6788 34.4083 89.7621 33.825C90.8454 33.225 92.0538 32.925 93.3871 32.925C94.7204 32.925 95.9288 33.225 97.0121 33.825C98.0954 34.4083 98.9454 35.2417 99.5621 36.325C100.195 37.4083 100.512 38.6583 100.512 40.075C100.512 41.4917 100.187 42.7417 99.5371 43.825C98.9038 44.9083 98.0371 45.75 96.9371 46.35C95.8538 46.9333 94.6371 47.225 93.2871 47.225ZM93.2871 44.175C93.9204 44.175 94.5121 44.025 95.0621 43.725C95.6288 43.4083 96.0788 42.9417 96.4121 42.325C96.7454 41.7083 96.9121 40.9583 96.9121 40.075C96.9121 38.7583 96.5621 37.75 95.8621 37.05C95.1788 36.3333 94.3371 35.975 93.3371 35.975C92.3371 35.975 91.4954 36.3333 90.8121 37.05C90.1454 37.75 89.8121 38.7583 89.8121 40.075C89.8121 41.3917 90.1371 42.4083 90.7871 43.125C91.4538 43.825 92.2871 44.175 93.2871 44.175ZM106.579 35.3C107.029 34.5667 107.613 33.9917 108.329 33.575C109.063 33.1583 109.896 32.95 110.829 32.95V36.625H109.904C108.804 36.625 107.971 36.8833 107.404 37.4C106.854 37.9167 106.579 38.8167 106.579 40.1V47H103.079V33.15H106.579V35.3Z" fill="#07BCC6"></path></svg>